<svg id="Capa_1" enable-background="new 0 0 512 512" height="512" viewBox="0 0 512 512" width="512" xmlns="http://www.w3.org/2000/svg"><g><path d="m406 135.15 73.493 120.85 15.138 15 17.369-15-89.973-152.441c-5.134 1.43-10.439 2.441-16.027 2.441s-10.893-1.011-16.027-2.441l-88.973 152.441 18.553 15 13.954-15z" fill="#ffbe40"/><path d="m106 135.15 72.493 120.85 15.138 15 17.369-15-88.973-152.441c-5.134 1.43-10.439 2.441-16.027 2.441s-10.893-1.011-16.027-2.441l-89.973 152.441 18.553 15 13.954-15z" fill="#ffdf40"/><g><path d="m406 121c-36.65 0-58.154-19.102-67.471-30h-67.529v-30h83.555l4.365 7.354c.498.805 14.443 22.646 47.08 22.646 32.783 0 46.963-22.412 47.08-22.646l7.646-12.905 25.811 15.278-7.617 12.92c-.908 1.523-22.705 37.353-72.92 37.353z" fill="#ff9f40"/></g><g><path d="m106 121c-50.215 0-72.012-35.83-72.92-37.354l-7.617-12.92 25.811-15.278 7.646 12.905c.498.806 14.443 22.647 47.08 22.647 32.783 0 46.963-22.412 47.08-22.646l4.365-7.354h83.555v30h-67.529c-9.317 10.898-30.821 30-67.471 30z" fill="#ffbe40"/></g><g><path d="m241 0h30v46h-30z" fill="#ffbe40"/></g><path d="m256 0h15v46h-15z" fill="#ff9f40"/><g><path d="m241 106h30v330h-30z" fill="#ffbe40"/></g><path d="m256 106h15v330h-15z" fill="#ff9f40"/><g><path d="m121 421v76h270v-76z" fill="#ffdf40"/></g><path d="m256 421h135v76h-135z" fill="#ffbe40"/><path d="m91 482h330v30h-330z" fill="#5f5166"/><path d="m178.493 256h-145.986-32.507c0 57.891 48.109 105 106 105s105-47.109 105-105z" fill="#ffbe40"/><path d="m256 482h165v30h-165z" fill="#45354d"/><g><path d="m256 31c-24.901 0-45 20.099-45 45 0 24.899 20.099 45 45 45s45-20.101 45-45c0-24.901-20.099-45-45-45z" fill="#ffdf40"/></g><path d="m256 121v-90c24.901 0 45 20.099 45 45 0 24.899-20.099 45-45 45z" fill="#ffbe40"/><path d="m479.493 256h-145.986-32.507c0 57.891 47.109 105 105 105s106-47.109 106-105z" fill="#ff9f40"/></g></svg>