<svg id="Capa_1" enable-background="new 0 0 512 512" height="512" viewBox="0 0 512 512" width="512" xmlns="http://www.w3.org/2000/svg"><g><g><path d="m512 160v337c0 8.28-6.72 15-15 15h-482c-8.28 0-15-6.72-15-15v-337z" fill="#fff5f5"/></g><path d="m512 160v337c0 8.28-6.72 15-15 15h-240.99v-352z" fill="#e6ecf2"/><g><g><path d="m186 110v65c0 8.284-6.716 15-15 15h-171v-80c0-8.284 6.716-15 15-15h156c8.284 0 15 6.716 15 15z" fill="#8fa7bf"/></g></g><g><g><path d="m512 110v80h-171c-8.284 0-15-6.716-15-15v-65c0-8.284 6.716-15 15-15h156c8.284 0 15 6.716 15 15z" fill="#607882"/></g></g><path d="m356 35.88v154.12h-200v-154.12c0-19.816 16.064-35.88 35.88-35.88h128.24c19.816 0 35.88 16.064 35.88 35.88z" fill="#ff8066"/><path d="m79.45 272.81h358.93v224.19h-358.93z" fill="#a8ebfa"/><path d="m356 190h-99.99v-190h64.11c19.816 0 35.88 16.064 35.88 35.88z" fill="#ff4d4d"/><g><path d="m306 95c0 8.28-6.72 15-15 15h-20v20c0 8.28-6.71 14.99-14.99 15h-.01c-8.28 0-15-6.72-15-15v-20h-20c-8.28 0-15-6.72-15-15s6.72-15 15-15h20v-20c0-8.28 6.72-15 15-15h.01c8.28.01 14.99 6.72 14.99 15v20h20c8.28 0 15 6.72 15 15z" fill="#fff5f5"/><path d="m256.01 145v-100c8.28.01 14.99 6.72 14.99 15v20h20c8.28 0 15 6.72 15 15s-6.72 15-15 15h-20v20c0 8.28-6.71 14.99-14.99 15z" fill="#e6ecf2"/></g><path d="m256.01 272.81h182.37v224.19h-182.37z" fill="#7dd5f4"/><path d="m437 256.57h-362c-8.28 0-15 6.72-15 15v215.43c0 8.28 6.72 15 15 15h362c8.28 0 15-6.72 15-15v-215.43c0-8.28-6.72-15-15-15zm-286.66 235.43h-60.34v-205.43h60.34zm90.97 0h-60.97v-205.43h60.97zm90.35 0h-60.35v-205.43h60.35zm90.34 0h-60.34v-205.43h60.34z" fill="#6aa8ff"/><path d="m437 256.57h-180.99v245.43h180.99c8.28 0 15-6.72 15-15v-215.43c0-8.28-6.72-15-15-15zm-105.34 235.43h-60.35v-205.43h60.35zm90.34 0h-60.34v-205.43h60.34z" fill="#7984ec"/><path d="m512 482v15c0 8.28-6.72 15-15 15h-482c-8.28 0-15-6.72-15-15v-15z" fill="#607882"/><path d="m512 482v15c0 8.28-6.72 15-15 15h-240.99v-30z" fill="#495959"/></g></svg>