<?xml version="1.0" encoding="iso-8859-1"?>
<!-- Generator: Adobe Illustrator 17.1.0, SVG Export Plug-In . SVG Version: 6.00 Build 0)  -->
<!DOCTYPE svg PUBLIC "-//W3C//DTD SVG 1.1//EN" "http://www.w3.org/Graphics/SVG/1.1/DTD/svg11.dtd">
<svg version="1.1" id="Capa_1" xmlns="http://www.w3.org/2000/svg" xmlns:xlink="http://www.w3.org/1999/xlink" x="0px" y="0px"
	 viewBox="0 0 406.319 406.319" style="enable-background:new 0 0 406.319 406.319;" xml:space="preserve">
<path id="XMLID_2024_" d="M213.231,276.552c0,4.971-4.029,9-9,9h-2.142c-4.971,0-9-4.029-9-9s4.029-9,9-9h2.142
	C209.202,267.552,213.231,271.581,213.231,276.552z M276.121,267.552h7.677c4.971,0,9,4.029,9,9s-4.029,9-9,9h-7.677
	c-4.089,33.356-30.605,59.874-63.961,63.962v7.676c0,4.971-4.029,9-9,9s-9-4.029-9-9v-7.676
	c-33.355-4.089-59.873-30.606-63.962-63.962h-7.676c-4.971,0-9-4.029-9-9s4.029-9,9-9h7.676
	c4.089-33.356,30.606-59.874,63.962-63.962v-7.675c0-4.971,4.029-9,9-9s9,4.029,9,9v7.675
	C245.515,207.678,272.032,234.196,276.121,267.552z M242.542,276.552c0-4.971,4.029-9,9-9h6.397
	c-3.833-23.413-22.366-41.948-45.779-45.781v6.399c0,4.971-4.029,9-9,9s-9-4.029-9-9v-6.399
	c-23.413,3.833-41.947,22.368-45.78,45.781h6.397c4.971,0,9,4.029,9,9s-4.029,9-9,9h-6.397c3.833,23.413,22.367,41.948,45.78,45.781
	v-6.398c0-4.971,4.029-9,9-9s9,4.029,9,9v6.398c23.413-3.833,41.946-22.368,45.779-45.781h-6.397
	C246.571,285.552,242.542,281.522,242.542,276.552z M405.69,138.021c0,37.342-14.819,72.377-41.728,98.652
	c-1.751,1.709-4.021,2.561-6.287,2.561c-2.34,0-4.677-0.906-6.44-2.712c-3.473-3.556-3.404-9.254,0.151-12.727
	c10.207-9.966,18.414-21.376,24.426-33.768h-42.71c-4.971,0-9-4.029-9-9s4.029-9,9-9h49.688c3.229-10.903,4.899-22.325,4.899-34.005
	c0-11.807-1.714-23.22-4.905-34.006h-76.23c1.562,11.016,2.37,22.401,2.37,34.006c0,3.164-0.065,6.432-0.193,9.711
	c-0.194,4.967-4.375,8.814-9.345,8.642c-4.967-0.194-8.836-4.378-8.642-9.345c0.119-3.047,0.18-6.078,0.18-9.008
	c0-11.583-0.904-22.992-2.633-34.006H212.16v11.262c0,4.971-4.029,9-9,9s-9-4.029-9-9v-11.262h-76.132
	c-1.729,11.014-2.633,22.423-2.633,34.006c0,2.914,0.061,5.944,0.181,9.008c0.194,4.966-3.675,9.15-8.642,9.345
	c-4.98,0.172-9.151-3.675-9.345-8.642c-0.129-3.296-0.194-6.564-0.194-9.711c0-11.605,0.809-22.99,2.37-34.006h-76.23
	c-3.191,10.786-4.905,22.199-4.905,34.006c0,11.68,1.67,23.103,4.899,34.005h49.689c4.971,0,9,4.029,9,9s-4.029,9-9,9h-42.71
	c6.012,12.391,14.219,23.802,24.426,33.768c3.556,3.473,3.624,9.171,0.151,12.727c-3.473,3.555-9.169,3.625-12.728,0.152
	c-26.909-26.275-41.729-61.311-41.729-98.652C0.629,61.916,62.545,0,138.65,0h114.175c0,0,0.003,0,0.005,0h14.839
	C343.774,0,405.69,61.916,405.69,138.021z M133.231,18.121C87.98,20.143,49.162,47.344,30.492,86.015h72.566
	C108.958,59.866,119.292,36.485,133.231,18.121z M194.16,18H157.13c-16.231,16.273-28.551,40.325-35.461,68.015h72.49V18z
	 M284.65,86.015C277.74,58.325,265.42,34.272,249.189,18H212.16v68.015H284.65z M375.828,86.015
	c-18.67-38.671-57.488-65.872-102.739-67.894c13.939,18.364,24.273,41.745,30.173,67.894H375.828z M332.929,276.552
	c0,71.554-58.214,129.768-129.77,129.768c-71.553,0-129.766-58.213-129.766-129.768s58.213-129.768,129.766-129.768
	C274.715,146.784,332.929,204.998,332.929,276.552z M314.929,276.552c0-61.629-50.14-111.768-111.77-111.768
	c-61.628,0-111.766,50.139-111.766,111.768s50.138,111.768,111.766,111.768C264.79,388.319,314.929,338.181,314.929,276.552z"/>
<g>
</g>
<g>
</g>
<g>
</g>
<g>
</g>
<g>
</g>
<g>
</g>
<g>
</g>
<g>
</g>
<g>
</g>
<g>
</g>
<g>
</g>
<g>
</g>
<g>
</g>
<g>
</g>
<g>
</g>
</svg>
