<svg id="Layer_1" enable-background="new 0 0 512 512" height="512" viewBox="0 0 512 512" width="512" xmlns="http://www.w3.org/2000/svg"><g><path d="m255.999 22c-135.309 0-244.999 109.69-244.999 245 0 56.933 19.423 109.328 52 150.927l1.008.391c27.698 10.747 50.501 31.267 64.101 57.682 37.229 22.83 81.02 36 127.891 36 135.309 0 244.999-109.69 245-244.999.001-134.979-110.022-245.001-245.001-245.001z" fill="#b3dafe"/><g><path d="m303 446c-4.962 0-9-4.037-9-9v-291c0-4.963 4.038-9 9-9h64v-86l-4.767-1h-293.866l-5.367 1v366.927c18.027 23.02 40.085 42.728 65.109 58.073h233.891c2.761 0 5-2.239 5-5v-25z" fill="#fff"/><path d="m63 417.927c14.304 18.265 31.153 34.435 50 48.005v-414.932h-50z" fill="#f8f6f6"/><g><path d="m367 51h-304v-41c0-5.523 4.477-10 10-10h284c5.523 0 10 4.477 10 10z" fill="#26a6fe"/></g><path d="m123 0h-50c-5.523 0-10 4.477-10 10v41h50v-41c0-5.523 4.477-10 10-10z" fill="#0593fc"/><g><g><path d="m161.243 117.329-16.104-16.104-1.676.262-25.975 25.975-.262 1.676 16.104 16.104c7.676 7.676 20.237 7.676 27.914 0 7.675-7.676 7.675-20.237-.001-27.913z" fill="#22b27f"/></g><path d="m154.329 145.243-12.569-12.568c-1.953-1.953-1.953-5.118 0-7.071l13.878-13.878-10.5-10.5-1.676.262-25.975 25.975-.262 1.677 16.104 16.104c6.612 6.612 16.84 7.513 24.457 2.736-1.227-.771-2.392-1.673-3.457-2.737z" fill="#09a76d"/><g><g><path d="m145.139 101.225-16.104-16.104c-7.676-7.676-20.238-7.676-27.914 0-7.676 7.676-7.676 20.238 0 27.914l16.104 16.104z" fill="#fac600"/></g></g><path d="m121.982 113.034c-7.676-7.676-7.676-20.238 0-27.914 1.085-1.084 2.274-1.999 3.526-2.777-7.61-4.729-17.796-3.815-24.388 2.777-7.676 7.676-7.676 20.238 0 27.914l16.104 16.104 10.431-10.431z" fill="#e8b800"/></g><g><path d="m327 105.5h-102c-4.142 0-7.5-3.357-7.5-7.5s3.358-7.5 7.5-7.5h102c4.142 0 7.5 3.357 7.5 7.5s-3.358 7.5-7.5 7.5z" fill="#22b27f"/></g><g><path d="m193 192.5h-90c-4.142 0-7.5-3.357-7.5-7.5s3.358-7.5 7.5-7.5h90c4.142 0 7.5 3.357 7.5 7.5s-3.358 7.5-7.5 7.5z" fill="#838383"/></g><g><path d="m259 225.5h-156c-4.142 0-7.5-3.357-7.5-7.5s3.358-7.5 7.5-7.5h156c4.142 0 7.5 3.357 7.5 7.5s-3.358 7.5-7.5 7.5z" fill="#838383"/></g><g><path d="m259 291.5h-156c-4.142 0-7.5-3.357-7.5-7.5s3.358-7.5 7.5-7.5h156c4.142 0 7.5 3.357 7.5 7.5s-3.358 7.5-7.5 7.5z" fill="#9c9c9c"/></g><g><path d="m193 324.5h-90c-4.142 0-7.5-3.357-7.5-7.5s3.358-7.5 7.5-7.5h90c4.142 0 7.5 3.357 7.5 7.5s-3.358 7.5-7.5 7.5z" fill="#9c9c9c"/></g><g><path d="m259 357.5h-136c-4.142 0-7.5-3.357-7.5-7.5s3.358-7.5 7.5-7.5h136c4.142 0 7.5 3.357 7.5 7.5s-3.358 7.5-7.5 7.5z" fill="#cecece"/></g><g><path d="m259 390.5h-136c-4.142 0-7.5-3.357-7.5-7.5s3.358-7.5 7.5-7.5h136c4.142 0 7.5 3.357 7.5 7.5s-3.358 7.5-7.5 7.5z" fill="#cecece"/></g><g><g><g><path d="m439 447h-136c-5.523 0-10-4.477-10-10v-291c0-5.523 4.477-10 10-10h136c5.523 0 10 4.477 10 10v291c0 5.523-4.477 10-10 10z" fill="#acacac"/></g><path d="m333 437v-291c0-5.523 4.477-10 10-10h-40c-5.523 0-10 4.477-10 10v291c0 5.523 4.477 10 10 10h40c-5.523 0-10-4.477-10-10z" fill="#9c9c9c"/><g><g><g><circle cx="337.751" cy="192.5" fill="#fac600" r="24.749"/></g><g><path d="m320.251 210c9.665 9.665 25.335 9.665 35 0s9.665-25.335 0-35z" fill="#e8b800"/></g></g><g><g><circle cx="337.751" cy="272.5" fill="#fac600" r="24.749"/></g><g><path d="m320.251 290c9.665 9.665 25.335 9.665 35 0s9.665-25.335 0-35z" fill="#e8b800"/></g></g><g><g><circle cx="337.751" cy="352.5" fill="#fac600" r="24.749"/></g><g><path d="m320.251 370c9.665 9.665 25.335 9.665 35 0s9.665-25.335 0-35z" fill="#e8b800"/></g></g><g><g><circle cx="404.249" cy="192.5" fill="#fac600" r="24.749"/></g><g><path d="m386.749 210c9.665 9.665 25.335 9.665 35 0s9.665-25.335 0-35z" fill="#e8b800"/></g></g><g><g><circle cx="404.249" cy="272.5" fill="#fac600" r="24.749"/></g><g><path d="m404.249 297.249c13.668 0 24.749-11.08 24.749-24.749 0-13.668-11.08-24.749-24.749-24.749z" fill="#e8b800"/></g></g><g><g><circle cx="404.249" cy="352.5" fill="#fac600" r="24.749"/></g><g><path d="m386.749 370c9.665 9.665 25.335 9.665 35 0s9.665-25.335 0-35z" fill="#e8b800"/></g></g></g></g><g><path d="m397 414.5h-52c-4.142 0-7.5-3.357-7.5-7.5s3.358-7.5 7.5-7.5h52c4.142 0 7.5 3.357 7.5 7.5s-3.358 7.5-7.5 7.5z" fill="#9c9c9c"/></g></g></g></g></svg>