<svg id="Capa_1" enable-background="new 0 0 497 497" height="512" viewBox="0 0 497 497" width="512" xmlns="http://www.w3.org/2000/svg"><g><g><path clip-rule="evenodd" d="m496.848 451.948-8.972-69.404c-5.614-43.653-42.687-50.712-72.621-58.872v-.028l-37.213 25.215c-3.837 2.852-6.828 4.264-9.818 4.235h-.028c-2.991.028-5.981-1.384-9.818-4.235l-37.213-25.215v.028c-29.934 8.16-67.006 15.219-72.621 58.872l-8.972 69.404c-.085.791-.141 1.468-.141 2.089v.028c0 3.755 1.89 4.8 6.433 4.8h50.643 194.05c5.304.001 6.996-1.439 6.291-6.917z" fill="#f8f2f0" fill-rule="evenodd"/></g><g><path clip-rule="evenodd" d="m487.876 382.544c-5.614-43.653-42.687-50.712-72.621-58.872v-.028l-14.53 9.826c29.314 24.791 47.596 59.804 47.596 98.629 0 9.149-1.016 18.128-2.962 26.768h45.197c5.304 0 6.997-1.44 6.292-6.918z" fill="#eee1dc" fill-rule="evenodd"/></g><g><path clip-rule="evenodd" d="m378.042 356.482 37.213-32.839c-10.552-2.88-13.317-16.462-15.489-20.866-10.552-8.358-46.354-13.271-63.113 0-2.144 4.405-4.937 17.986-15.489 20.866l37.213 32.839c3.837 2.852 6.828 4.264 9.818 4.235h.028c2.992.029 5.982-1.383 9.819-4.235z" fill="#fed1a3" fill-rule="evenodd"/></g><g><path clip-rule="evenodd" d="m415.256 323.643c-10.552-2.88-13.317-16.462-15.489-20.866-9.226 5.167-20.821 9.318-31.542 9.318-10.806 0-22.232-4.151-31.571-9.318-1.382 2.824-3.019 9.431-6.828 14.57 14.586 7.991 42.969 13.695 58.514 6.184 5.191-2.541 6.066.649 6.066.649 1.382 3.699 2.991 5.675 6.263 9.233.028.028.056.056.056.056z" fill="#ffbc85" fill-rule="evenodd"/></g><g><path clip-rule="evenodd" d="m399.767 302.777c24.235-13.497 43.42-38.994 47.906-62.204.649-3.388 1.016-6.748 1.016-9.996v-28.038h-14.643c-31.401 0-37.975-38.712-76.345-38.712h-25.505c-29.398 0-6.997 44.613-40.824 44.613h-3.809v22.137c0 3.247.367 6.607 1.016 9.996 4.514 23.21 23.812 48.707 48.075 62.204 3.696 2.033 7.505 3.812 11.398 5.252 7.307 2.711 13.74 4.066 20.172 4.066s12.865-1.355 20.144-4.066c3.894-1.44 7.703-3.219 11.399-5.252z" fill="#ffe5c1" fill-rule="evenodd"/></g><g><path clip-rule="evenodd" d="m448.688 171.818c0-59.239-95.163-88.774-125.013-50.006-38.962 3.445-36.113 55.343-36.113 62.204v18.241 13.807h3.809c33.828 0 11.426-44.613 40.824-44.613h25.505c38.37 0 44.915 38.712 76.345 38.712h14.643v-7.906z" fill="#6d80aa" fill-rule="evenodd"/></g><g><path clip-rule="evenodd" d="m448.688 171.818c0-43.681-51.799-71.24-90.931-67.117 34.082 5.591 68.868 30.551 68.868 66.355v30.439.282 7.624c2.313.48 4.768.762 7.42.762h14.643v-7.624-.282z" fill="#49679b" fill-rule="evenodd"/></g><g><path clip-rule="evenodd" d="m382.387 310.005c1.947-.536 3.922-1.214 5.981-1.977 2.313-.847 4.599-1.835 6.856-2.908.028-.028.056-.028.085-.028-4.148 2.005-8.521 3.699-12.922 4.913zm13.006-4.969c.028 0 .056-.028.085-.028-.028 0-.056.028-.085.028zm0 0c1.1-.536 2.201-1.073 3.273-1.666h-.028c-1.044.565-2.088 1.101-3.16 1.638-.028 0-.056.028-.085.028zm.085-.028c1.072-.536 2.144-1.073 3.16-1.638-.085.056-.169.113-.254.141-.959.508-1.918 1.016-2.906 1.497zm4.289-2.231c24.235-13.497 43.42-38.994 47.906-62.204.649-3.388 1.016-6.748 1.016-9.996v-20.415h-14.643c-2.652 0-5.107-.282-7.42-.762v20.415c0 3.247-.339 6.579-1.016 9.996-4.486 23.21-23.671 48.707-47.906 62.176-3.696 2.061-7.505 3.84-11.398 5.28-3.781 1.412-7.364 2.457-10.806 3.134 4.288 1.073 8.577 1.694 12.724 1.694 4.599 0 9.395-.762 14.135-2.089h.028c4.373-1.214 8.718-2.908 12.837-4.885.028-.028.056-.028.085-.028.028-.028.056-.028.085-.056.028 0 .056-.028.085-.028 1.072-.536 2.144-1.073 3.188-1.638l.226-.141h.056l.141-.085c.113-.085.254-.141.395-.226.084-.057.169-.086.282-.142z" fill="#fed1a3" fill-rule="evenodd"/></g><g><path d="m368.21 283.58c-7.299 0-14.158-2.842-19.313-8.001-2.928-2.93-2.926-7.679.004-10.607 2.93-2.927 7.679-2.926 10.607.004 2.322 2.324 5.413 3.604 8.702 3.604s6.38-1.28 8.702-3.604c2.928-2.93 7.677-2.932 10.607-.004s2.932 7.677.004 10.607c-5.155 5.159-12.014 8.001-19.313 8.001z" fill="#6d80aa"/></g><g><path d="m342.973 238.557c-1.874 0-3.75-.698-5.206-2.102-1.774-1.71-4.771-1.709-6.543 0-2.981 2.875-7.729 2.791-10.604-.191-2.876-2.981-2.79-7.729.191-10.604 7.546-7.278 19.824-7.279 27.37 0 2.981 2.875 3.067 7.624.191 10.604-1.472 1.526-3.434 2.293-5.399 2.293z" fill="#6d80aa"/></g><g><path d="m410.43 238.557c-1.874 0-3.75-.698-5.206-2.102-1.781-1.718-4.79-1.718-6.571 0-2.981 2.875-7.729 2.791-10.604-.191-2.876-2.981-2.79-7.729.191-10.604 7.553-7.286 19.845-7.286 27.397 0 2.981 2.875 3.067 7.624.191 10.604-1.471 1.526-3.433 2.293-5.398 2.293z" fill="#6d80aa"/></g><g><path clip-rule="evenodd" d="m220.867 349.536c4.26-1.751 9.113-3.05 14.558-4.151 9-1.779 16.335-2.513 6.235-17.45-15.433-22.815-22.232-55.992-22.232-119.467-.564-9.205-1.524-18.269-3.583-27.05-19.044-80.275-125.972-85.471-149.586-40.011-.987 1.892-2.765 1.835-4.627 2.146-18.734 2.993-34.505 29.676-34.505 65.141 0 63.475-6.799 96.68-22.232 119.467-10.129 14.937-2.793 15.671 6.235 17.478 5.417 1.073 10.072 2.372 14.332 4.151 177.264 62.232 24.207 81.659 195.405-.254z" fill="#6d80aa" fill-rule="evenodd"/></g><g><path clip-rule="evenodd" d="m194.149 332.199 36.621 14.231c1.495-.367 3.047-.706 4.655-1.045 9-1.779 16.335-2.513 6.235-17.45-15.433-22.815-22.232-55.992-22.232-119.467-.564-9.205-1.524-18.269-3.583-27.05-17.351-73.047-107.408-83.918-141.292-51.051 40.204-18.805 110.878-2.457 126.028 61.385 2.06 8.781 3.019 17.845 3.583 27.05 0 19.257.621 35.747 1.919 49.978.367 4.038.875 2.88-2.144 5.365-13.712 11.407-23.84 29.93-27.113 52.604 5.925 1.638 11.765 3.36 17.323 5.45z" fill="#49679b" fill-rule="evenodd"/></g><g><path clip-rule="evenodd" d="m132.926 364.303 36.875-39.474c-10.439-2.852-13.204-16.349-15.348-20.697-18.649-15.982-38.229-13.807-62.379 0-2.116 4.348-4.881 17.845-15.348 20.697l36.903 39.474c7.504 5.591 11.793 5.591 19.297 0z" fill="#fed1a3" fill-rule="evenodd"/></g><g><path clip-rule="evenodd" d="m154.453 304.132c20.821-13.666 36.085-37.611 36.085-57.432v-20.584c-27.254-1.92-23.191-22.73-41.981-17.873-14.502 3.727-19.89 5.619-25.279 5.619s-10.777-1.892-25.279-5.619c-18.818-4.857-14.755 15.953-41.981 17.873v20.584c0 19.822 15.263 43.766 36.056 57.432 4.571 2.965 9.367 5.45 14.332 7.313 6.094 2.259 11.483 3.388 16.871 3.388 5.36 0 10.749-1.129 16.843-3.388 4.994-1.863 9.791-4.348 14.333-7.313z" fill="#ffe5c1" fill-rule="evenodd"/></g><g><path clip-rule="evenodd" d="m237.06 458.87h-227.59c-5.25 0-6.92-1.44-6.21-6.87l8.86-68.81c1.94-14.96 6.71-25.58 13.34-33.4 6.3-7.41 14.26-12.32 23.07-16.05 8.82-3.72 18.49-6.26 28.2-8.91l36.9 24.99c7.5 5.59 11.79 5.59 19.3 0l36.87-24.99h.03c19.3 5.28 38.48 10.08 51.04 24.71 6.74 7.87 11.59 18.55 13.54 33.65l8.89 68.81c.7 5.43-.96 6.87-6.24 6.87z" fill="#ffa5c7" fill-rule="evenodd"/></g><g><path clip-rule="evenodd" d="m154.453 304.132c20.821-13.666 36.085-37.611 36.085-57.432v-20.584c-7.392-.536-12.47-2.428-16.335-4.828v14.4c0 19.794-15.292 43.766-36.085 57.404-.564.395-1.157.762-1.749 1.129-4.006 2.485-8.238 4.602-12.583 6.212-6.094 2.259-11.483 3.388-16.843 3.388-3.724 0-7.448-.536-11.37-1.609-1.777-.508-3.611-1.101-5.502-1.779-2.313-.875-4.571-1.864-6.799-2.993 2.793 2.428 5.755 4.659 8.803 6.692 4.571 2.965 9.367 5.45 14.332 7.313 6.094 2.259 11.483 3.388 16.871 3.388 5.36 0 10.749-1.129 16.843-3.388 4.993-1.863 9.79-4.348 14.332-7.313z" fill="#fed1a3" fill-rule="evenodd"/></g><g><path clip-rule="evenodd" d="m169.801 324.829c-10.439-2.852-13.204-16.349-15.348-20.697-8.887 5.817-20.426 10.701-31.176 10.701s-22.288-4.885-31.204-10.701c-1.185 2.457-2.596 7.793-5.445 12.509 12.555 10.334 36.226 16.998 50.276 11.774 2.906-1.073 4.091-1.807 5.502-2.824 6.179-4.518 4.232 2.965 10.862 10.447z" fill="#ffbc85" fill-rule="evenodd"/></g><g><path clip-rule="evenodd" d="m234.409 383.193c-1.947-15.106-6.799-25.78-13.542-33.657-12.555-14.626-31.74-19.426-51.038-24.707h-.028l-16.533 11.21c1.58.48 3.16.96 4.683 1.468 12.301 4.066 23.558 9.459 31.937 19.172 1.58 1.864 3.075 3.868 4.429 6.071 4.429 7.087 7.618 16.038 9.085 27.587l8.859 68.529h24.799c5.276 0 6.94-1.44 6.235-6.861z" fill="#fe76a8" fill-rule="evenodd"/></g><g><path d="m69.81 419.5v39.37h-15v-39.37c0-4.14 3.36-7.5 7.5-7.5s7.5 3.36 7.5 7.5z" fill="#fe76a8"/></g><g><path clip-rule="evenodd" d="m176.685 494.5h71.774 73.665c2.455 0 4.458-2.005 4.458-4.461v-14.598c0-25.723-17.464-32.923-35.351-37.949h-83.652c-17.887 5.026-35.351 12.226-35.351 37.949v14.598c-.001 2.456 2.002 4.461 4.457 4.461z" fill="#22a6fe" fill-rule="evenodd"/></g><g><path clip-rule="evenodd" d="m274.049 447.572c17.887 5.026 36.198 10.109 36.198 35.832v11.096h11.878c2.455 0 4.458-2.005 4.458-4.461v-14.598c0-25.723-17.464-32.923-35.351-37.949z" fill="#0182fc" fill-rule="evenodd"/></g><g><path clip-rule="evenodd" d="m207.578 437.491 34.335 20.161c5.84 3.755 9.169 3.755 14.981 0l34.335-20.161c-3.188-.904-6.376-1.722-9.508-2.569-7.251-2.005-9.169-11.351-10.665-14.4h-43.307c-1.495 3.049-3.414 12.396-10.665 14.4-3.101.847-6.318 1.666-9.506 2.569z" fill="#fed1a3" fill-rule="evenodd"/></g><g><path clip-rule="evenodd" d="m249.418 291.652c-27.649.452-55.27 21.29-55.27 62.374 77.868 16.095 48.47 14.909 110.539 0 .001-41.084-27.648-61.922-55.269-62.374z" fill="#6d80aa" fill-rule="evenodd"/></g><g><path clip-rule="evenodd" d="m194.149 370.939c0 17.506 14.53 38.966 33.602 49.583 2.539 1.412 5.135 2.626 7.815 3.614 10.016 3.727 17.661 3.727 27.677 0 2.68-.988 5.276-2.202 7.815-3.614 19.1-10.617 33.63-32.076 33.63-49.583v-16.913c-22.373-1.581-19.044-18.664-34.477-14.683-11.962 3.078-16.364 4.631-20.793 4.602-4.458.028-8.859-1.525-20.793-4.602-15.433-3.981-12.103 13.102-34.477 14.683v16.913z" fill="#ffe5c1" fill-rule="evenodd"/></g><g><path clip-rule="evenodd" d="m227.751 420.521c2.539 1.412 5.135 2.626 7.815 3.614 10.016 3.727 17.661 3.727 27.677 0 2.68-.988 5.276-2.202 7.815-3.614 19.1-10.617 33.63-32.076 33.63-49.583v-16.913c-9.282-.649-14.135-3.981-17.746-7.341v11.831 5.082c0 17.535-14.53 38.994-33.602 49.611-2.539 1.384-5.135 2.598-7.815 3.614-7.505 2.767-13.683 3.473-20.511 2.089.903.566 1.806 1.102 2.737 1.61z" fill="#fed1a3" fill-rule="evenodd"/></g><g><path clip-rule="evenodd" d="m260.619 292.979c15.207 9.713 26.323 27.643 26.323 53.705 3.611 3.36 8.464 6.692 17.746 7.341 0-35.492-20.652-55.879-44.069-61.046z" fill="#49679b" fill-rule="evenodd"/></g><g><path clip-rule="evenodd" d="m253.397 440.823c6.489-2.457 10.072-2.965 11.455-.96 1.918 2.824 5.219 6.24 9.197 7.708l3.639-2.118 13.542-7.963c-3.188-.904-6.376-1.722-9.508-2.569-7.251-2.005-9.169-11.351-10.665-14.4-2.539 1.412-5.135 2.626-7.815 3.614-10.016 3.727-17.661 3.727-27.677 0-2.68-.988-5.276-2.202-7.815-3.614-1.129 2.315-2.539 8.358-6.376 11.944-1.551 1.469 20.878 13.045 32.023 8.358z" fill="#ffbc85" fill-rule="evenodd"/></g><g><path d="m227.44 380.641c-4.142 0-7.5-3.358-7.5-7.5v-4.772c0-4.142 3.358-7.5 7.5-7.5s7.5 3.358 7.5 7.5v4.772c0 4.142-3.357 7.5-7.5 7.5z" fill="#6d80aa"/></g><g><path d="m269.93 380.641c-4.142 0-7.5-3.358-7.5-7.5v-4.772c0-4.142 3.358-7.5 7.5-7.5s7.5 3.358 7.5 7.5v4.772c0 4.142-3.358 7.5-7.5 7.5z" fill="#6d80aa"/></g><g><path d="m124.458 293.271c-5.646 0-10.954-2.202-14.95-6.202-2.928-2.93-2.925-7.679.005-10.606s7.678-2.926 10.606.005c1.162 1.163 2.703 1.804 4.339 1.804h.008c1.626-.002 3.152-.638 4.297-1.79 2.919-2.938 7.667-2.952 10.606-.033 2.938 2.92 2.952 7.669.033 10.607-3.977 4-9.274 6.208-14.917 6.215-.008 0-.018 0-.027 0z" fill="#fd4755"/></g><g><path d="m100.48 251.263c-1.88 0-3.762-.703-5.218-2.114-1.545-1.497-4.154-1.497-5.699 0-2.975 2.883-7.723 2.808-10.605-.167-2.883-2.974-2.808-7.723.167-10.605 7.327-7.101 19.249-7.101 26.576 0 2.975 2.882 3.049 7.631.167 10.605-1.472 1.518-3.429 2.281-5.388 2.281z" fill="#6d80aa"/></g><g><path d="m164.553 251.263c-1.888 0-3.777-.708-5.236-2.13-1.523-1.485-4.113-1.479-5.654.017-2.975 2.882-7.723 2.807-10.605-.167-2.882-2.975-2.808-7.723.167-10.605 7.343-7.114 19.26-7.107 26.565.017 2.965 2.892 3.025 7.641.133 10.606-1.47 1.505-3.42 2.262-5.37 2.262z" fill="#6d80aa"/></g><g><path clip-rule="evenodd" d="m294.39 68.784c15.15-15.699 15.15-41.394 0-57.122-13.768-14.259-36-10.673-50.699 2.569-2.737 2.457-3.668 3.671-4.401 3.671-.734 0-1.693-1.214-4.401-3.671-14.727-13.243-36.959-16.829-50.727-2.569-15.15 15.728-15.15 41.422 0 57.122l6.15 6.099 45.085 44.726c1.947 1.525 2.906 2.372 3.893 2.4.959-.028 1.919-.875 3.865-2.4l45.085-44.726z" fill="#fd4755" fill-rule="evenodd"/></g><g><path clip-rule="evenodd" d="m305.393 45.687v-10.927c-1.1-8.443-4.768-16.631-11.003-23.097-10.072-10.42-24.63-11.323-37.495-5.874 1.777 1.186 3.47 2.569 5.05 4.207 15.15 15.699 15.15 41.422 0 57.122l-6.15 6.099-33.574 33.319 13.176 13.073c1.947 1.525 2.906 2.372 3.893 2.4.959-.028 1.919-.875 3.865-2.4l45.085-44.726 6.15-6.099c6.235-6.466 9.903-14.626 11.003-23.097z" fill="#e41e2b" fill-rule="evenodd"/></g><g><path d="m423.19 458.87v-39.37c0-4.14 3.36-7.5 7.5-7.5s7.5 3.36 7.5 7.5v39.37z" fill="#eee1dc"/></g></g></svg>