<svg id="Layer_4" height="512" viewBox="0 0 512 512" width="512" xmlns="http://www.w3.org/2000/svg" data-name="Layer 4"><path d="m459.295 238.371-83.295 25.629h-120v216l211.881-52.97a16 16 0 0 0 12.119-15.522v-157.845a16 16 0 0 0 -20.705-15.292z" fill="#77b9e5"/><path d="m136 264-83.295-25.629a16 16 0 0 0 -20.705 15.292v165.4a16 16 0 0 0 12.647 15.647l211.353 45.29v-216z" fill="#a2d2f9"/><path d="m376 216v152a16 16 0 0 1 -16 16h-208a16 16 0 0 1 -16-16v-152" fill="#fcc42d"/><path d="m227.609 117.136-112.409 84.464a8 8 0 0 0 4.8 14.4h272a8 8 0 0 0 4.8-14.4l-112.409-84.464" fill="#0a529b"/><path d="m224 296h64a8 8 0 0 1 8 8v80a0 0 0 0 1 0 0h-80a0 0 0 0 1 0 0v-80a8 8 0 0 1 8-8z" fill="#0a529b"/><path d="m260.8 99.6a8 8 0 0 0 -9.6 0l-109.163 81.872c76.346-1.4 130.047-23.954 165.235-47.018z" fill="#fcfafa" opacity=".2"/><path d="m136 216h240v24h-240z" fill="#064186" opacity=".2"/><path d="m152 384h8v-168h-24v152a16 16 0 0 0 16 16z" fill="#fcfafa" opacity=".2"/><path d="m304 80c0 26.51-48 64-48 64s-48-37.49-48-64a48 48 0 0 1 96 0z" fill="#fcc42d"/><circle cx="256" cy="80" fill="#064186" r="16"/><path d="m274.286 48a58.141 58.141 0 0 1 20.485 3.712 47.995 47.995 0 0 0 -86.771 28.288c0 6.943 3.3 14.64 8.157 22.219a58.278 58.278 0 0 1 58.129-54.219z" fill="#fcfafa" opacity=".2"/></svg>