<svg id="Capa_1" enable-background="new 0 0 512 512" height="512" viewBox="0 0 512 512" width="512" xmlns="http://www.w3.org/2000/svg"><g><g><g><path d="m425.27 468.467c-4.211 0-7.624-3.414-7.624-7.624v-23.311c0-4.211 3.414-7.624 7.624-7.624s7.624 3.414 7.624 7.624v23.311c0 4.211-3.413 7.624-7.624 7.624z" fill="#497090"/></g><path d="m439.091 433.21-8.672 9.091c-2.804 2.939-7.494 2.939-10.298 0l-8.672-9.091c-1.263-1.324-1.967-3.083-1.967-4.912v-38.353h31.577v38.353c0 1.829-.705 3.588-1.968 4.912z" fill="#5680a6"/><path d="m441.75 400.111h-32.96c-3.93 0-7.116-3.186-7.116-7.116v-103.403l10.596-10.166h25.922l10.674 10.166v103.403c0 3.93-3.185 7.116-7.116 7.116z" fill="#99e6fc"/><path d="m422.009 279.424v120.686h-13.215c-3.93 0-7.116-3.186-7.116-7.116v-103.404l9.576-10.166z" fill="#62dbfb"/><path d="m441.01 110.2h-31.48v-34.645c0-3.866 3.134-7 7-7h17.479c3.866 0 7 3.134 7 7v34.645z" fill="#fd8087"/><path d="m448.866 289.592h-47.193v-182.557c0-3.866 3.134-7 7-7h33.193c3.866 0 7 3.134 7 7z" fill="#5680a6"/><path d="m422.009 100.032v189.558h-20.331v-182.443c0-3.93 3.186-7.116 7.116-7.116h13.215z" fill="#497090"/><g><path d="m480.378 234.063c-4.211 0-7.624-3.414-7.624-7.624v-87.106h-71.08c-4.211 0-7.624-3.414-7.624-7.624s3.414-7.624 7.624-7.624h78.704c4.211 0 7.624 3.414 7.624 7.624v94.73c0 4.211-3.413 7.624-7.624 7.624z" fill="#99e6fc"/></g></g><g><path d="m375.992 38.996v466.004c0 3.866-3.134 7-7 7h-337.994c-3.866 0-7-3.134-7-7v-466.004c0-3.866 3.134-7 7-7h58.036l20.609 10h180.705l20.609-10h58.036c3.865 0 6.999 3.134 6.999 7z" fill="#fed2a4"/><path d="m310.956 31.996v32.007h-221.923v-32.007h20.609l9.853 10h160l10.852-10z" fill="#ffbd86"/><path d="m343.994 71.003v401.999c0 3.866-3.134 7-7 7h-273.999c-3.866 0-7-3.134-7-7v-401.999c0-3.866 3.134-7 7-7h273.999c3.866 0 7 3.134 7 7z" fill="#f2fbff"/><path d="m310.956 64.003v29.551c0 3.866-3.134 7-7 7h-207.923c-3.866 0-7-3.134-7-7v-29.551z" fill="#dff6fd"/><path d="m44.602 31.996v480.004h-13.604c-3.866 0-7-3.134-7-7v-466.004c0-3.866 3.134-7 7-7z" fill="#ffbd86"/><path d="m76.599 64.003v415.999h-13.604c-3.866 0-7-3.134-7-7v-401.999c0-3.866 3.134-7 7-7z" fill="#dff6fd"/><path d="m231.995 32c0-17.673-14.327-32-32-32-17.673 0-32 14.327-32 32h-58.353v40.95c0 3.866 3.134 7 7 7h166.705c3.866 0 7-3.134 7-7v-39.95-1z" fill="#62dbfb"/><path d="m205.762 26.051c3.185 3.185 3.185 8.35 0 11.535-3.185 3.185-8.35 3.185-11.535 0-3.185-3.185-3.185-8.35 0-11.535 3.186-3.185 8.35-3.185 11.535 0z" fill="#5680a6"/></g><g><g><path d="m288.107 325.593h-103.237c-4.142 0-7.5-3.358-7.5-7.5s3.358-7.5 7.5-7.5h103.236c4.142 0 7.5 3.358 7.5 7.5s-3.357 7.5-7.499 7.5z" fill="#5680a6"/></g><g><path d="m288.107 356.656h-103.237c-4.142 0-7.5-3.358-7.5-7.5s3.358-7.5 7.5-7.5h103.236c4.142 0 7.5 3.358 7.5 7.5s-3.357 7.5-7.499 7.5z" fill="#5680a6"/></g><g><path d="m288.107 387.718h-103.237c-4.142 0-7.5-3.358-7.5-7.5s3.358-7.5 7.5-7.5h103.236c4.142 0 7.5 3.358 7.5 7.5s-3.357 7.5-7.499 7.5z" fill="#5680a6"/></g><g><path d="m153.808 325.593h-46.594c-4.142 0-7.5-3.358-7.5-7.5s3.358-7.5 7.5-7.5h46.594c4.142 0 7.5 3.358 7.5 7.5s-3.358 7.5-7.5 7.5z" fill="#5680a6"/></g><g><path d="m153.808 356.656h-46.594c-4.142 0-7.5-3.358-7.5-7.5s3.358-7.5 7.5-7.5h46.594c4.142 0 7.5 3.358 7.5 7.5s-3.358 7.5-7.5 7.5z" fill="#5680a6"/></g><g><path d="m153.808 387.718h-46.594c-4.142 0-7.5-3.358-7.5-7.5s3.358-7.5 7.5-7.5h46.594c4.142 0 7.5 3.358 7.5 7.5s-3.358 7.5-7.5 7.5z" fill="#5680a6"/></g><g><path d="m286.483 433.811h-58.47c-4.142 0-7.5-3.358-7.5-7.5s3.358-7.5 7.5-7.5h58.47c4.142 0 7.5 3.358 7.5 7.5s-3.358 7.5-7.5 7.5z" fill="#5680a6"/></g></g><circle cx="200.399" cy="193.828" fill="#fd8087" r="77.64"/><path d="m239.993 178.312h-17.062c-3.866 0-7-3.134-7-7v-17.062c0-3.866-3.134-7-7-7h-17.062c-3.866 0-7 3.134-7 7v17.062c0 3.866-3.134 7-7 7h-17.062c-3.866 0-7 3.134-7 7v17.062c0 3.866 3.134 7 7 7h17.062c3.866 0 7 3.134 7 7v17.062c0 3.866 3.134 7 7 7h17.062c3.866 0 7-3.134 7-7v-17.062c0-3.866 3.134-7 7-7h17.062c3.866 0 7-3.134 7-7v-17.062c0-3.866-3.134-7-7-7z" fill="#f2fbff"/></g></svg>