<svg id="Capa_1" enable-background="new 0 0 512 512" height="512" viewBox="0 0 512 512" width="512" xmlns="http://www.w3.org/2000/svg"><g><path d="m10 512h372c5.522 0 10-4.477 10-10l.001-186c0-2.652-1.054-5.196-2.929-7.071-1.876-1.875-4.419-2.929-7.071-2.929h-53.001v-20c0-22.056-17.944-40-40-40s-40 17.944-40 40v20h-43v-53c0-5.523-4.478-10-10-10h-33c-11.028 0-20-8.972-20-20s8.972-20 20-20h33c5.522 0 10-4.477 10-10v-63c0-5.523-4.478-10-10-10h-53v-20c0-22.056-17.944-40-40-40s-40 17.944-40 40v20h-53c-5.522 0-10 4.477-10 10v372c0 5.523 4.478 10 10 10zm196-186h53c5.522 0 10-4.477 10-10v-30c0-11.028 8.972-20 20-20s20 8.972 20 20v30c0 5.523 4.478 10 10 10h53.001l-.001 166h-166v-43h23c22.056 0 40-17.944 40-40s-17.944-40-40-40h-23zm-186-186h53c5.522 0 10-4.477 10-10v-30c0-11.028 8.972-20 20-20s20 8.972 20 20v30c0 5.523 4.478 10 10 10h53v43h-23c-22.056 0-40 17.944-40 40s17.944 40 40 40h23v43h-166zm0 186h166v53c0 5.523 4.478 10 10 10h33c11.028 0 20 8.972 20 20s-8.972 20-20 20h-33c-5.522 0-10 4.477-10 10v53h-166z"/><path d="m502 0h-186c-5.522 0-10 4.477-10 10v53h-20c-22.056 0-40 17.944-40 40s17.944 40 40 40h20v53c0 5.523 4.478 10 10 10h63c5.522 0 10-4.477 10-10v-33c0-11.028 8.972-20 20-20s20 8.972 20 20v33c0 5.523 4.478 10 10 10h63c5.522 0 10-4.477 10-10v-186c0-5.523-4.478-10-10-10z"/></g></svg>