<?xml version="1.0"?>
<svg xmlns="http://www.w3.org/2000/svg" xmlns:xlink="http://www.w3.org/1999/xlink" xmlns:svgjs="http://svgjs.com/svgjs" version="1.1" width="512" height="512" x="0" y="0" viewBox="0 0 512.126 512.126" style="enable-background:new 0 0 512 512" xml:space="preserve" class=""><g>
<g xmlns="http://www.w3.org/2000/svg" transform="translate(0 -1)">
	<g>
		<g>
			<path d="M13.88,171.793h117.986c1.201,2.614,2.547,5.16,4.031,7.625l-0.009,4.175l-22.567,11.587     c-11.796,5.875-19.293,17.877-19.4,31.054v8.875c0.104,7.537,6.288,13.568,13.825,13.484h125.95     c7.537,0.085,13.721-5.946,13.825-13.483v-8.875c-0.108-13.178-7.605-25.18-19.4-31.058l-22.583-11.579v-4.171     c1.49-2.466,2.84-5.015,4.042-7.633h117.983c7.537,0.085,13.721-5.946,13.825-13.483v-8.875     c-0.107-13.177-7.604-25.179-19.4-31.054v-0.004l-22.583-11.579v-4.196c3.072-5.008,5.558-10.353,7.408-15.929     c5.027-3.432,8.109-9.062,8.292-15.146V60.689c-0.089-4.571-1.961-8.927-5.217-12.138l-0.025-8.554     c0.722-9.479-2.508-18.835-8.925-25.85c-9.739-9.271-22.94-13.999-36.35-13.021c-13.434-0.976-26.655,3.772-36.4,13.071     c-6.195,6.829-9.377,15.867-8.825,25.071v9.259c-3.309,3.191-5.213,7.566-5.292,12.162v10.837     c0.183,6.084,3.265,11.713,8.292,15.146c1.848,5.573,4.331,10.915,7.4,15.921l-0.009,4.2l-13.682,7.024     c-0.04-8.48-3.251-16.638-9.002-22.87c-9.739-9.27-22.939-13.999-36.35-13.021c-13.434-0.976-26.655,3.772-36.4,13.071     c-5.69,6.256-8.857,14.4-8.889,22.856l-13.761-7.056v-4.196c3.072-5.008,5.558-10.353,7.408-15.929     c5.027-3.432,8.109-9.062,8.292-15.146V60.689c-0.09-4.57-1.962-8.924-5.217-12.133l-0.025-8.558     c0.723-9.479-2.508-18.836-8.925-25.85c-9.739-9.271-22.94-13.999-36.35-13.021C63.421,0.151,50.2,4.898,40.455,14.197     c-6.195,6.831-9.377,15.87-8.825,25.075v9.259c-3.307,3.19-5.211,7.564-5.292,12.158v10.837     c0.183,6.084,3.265,11.713,8.292,15.146c1.849,5.573,4.332,10.915,7.4,15.921l-0.009,4.2l-22.567,11.588     c-11.796,5.875-19.293,17.877-19.4,31.054v8.875C0.159,165.846,6.343,171.878,13.88,171.793z M241.063,120.151     c3.963-2.5,6.193-7.008,5.775-11.675v-8.363c-0.001-1.683-0.499-3.329-1.434-4.729c-3.314-4.994-5.84-10.468-7.491-16.229     c-0.555-2.011-1.827-3.749-3.575-4.887c-1.249-0.682-2.339-1.621-3.2-2.754v0.004l-0.075-10.438     c0.643-0.803,1.388-1.519,2.217-2.129c1.993-1.622,3.15-4.055,3.15-6.625l-0.025-13.754c-0.366-4.656,1.181-9.259,4.284-12.75     c6.584-5.711,15.224-8.469,23.9-7.629c8.668-0.841,17.302,1.912,23.883,7.617c3.252,3.69,4.829,8.563,4.358,13.458v13.058     c0,2.57,1.157,5.003,3.15,6.625c1.692,1.371,2.05,1.833,2.058,1.737l0.017,10.696c0,0.009-0.383,1.05-3.217,2.883     c-1.748,1.138-3.02,2.876-3.575,4.887c-1.651,5.762-4.178,11.235-7.492,16.229c-0.934,1.4-1.433,3.046-1.434,4.729v8.363     c-0.392,4.852,2.04,9.498,6.25,11.942l25.6,13.141c6.094,2.966,10.008,9.1,10.133,15.876v5.292h-104.35     c0.843-2.028,1.273-4.204,1.267-6.4v-10.837c0.004-2.221-0.456-4.418-1.35-6.45L241.063,120.151z M139.413,135.743     c1.554-1.34,2.563-3.203,2.838-5.236l0.04-0.177c0.121-0.394,0.212-0.796,0.273-1.204l-0.025-13.75     c-0.366-4.657,1.18-9.263,4.283-12.755c6.584-5.711,15.224-8.469,23.9-7.629c8.668-0.841,17.302,1.912,23.883,7.617     c3.251,3.692,4.829,8.565,4.358,13.462v13.054c0,2.57,1.157,5.003,3.15,6.625c1.692,1.371,2.058,1.829,2.058,1.737l0.017,10.696     c0,0.009-0.383,1.05-3.217,2.883c-1.731,1.126-2.995,2.842-3.558,4.829c-0.34,1.328-0.774,2.63-1.3,3.896     c-0.052,0.116-0.062,0.241-0.108,0.358c-0.024,0.061-0.078,0.101-0.101,0.163c-1.501,4.139-3.49,8.083-5.925,11.75     c-0.983,1.426-1.509,3.118-1.508,4.85v8.363c-0.392,4.852,2.039,9.498,6.25,11.942l25.6,13.138     c6.093,2.968,10.008,9.102,10.133,15.878v5.292H110.988v-5.292c0.124-6.776,4.039-12.91,10.133-15.875l26.075-13.408     c3.963-2.5,6.193-7.008,5.775-11.675v-8.363c0.001-1.732-0.525-3.424-1.508-4.85c-2.489-3.786-4.525-7.85-6.067-12.11     l-0.012-0.029l-0.055-0.132c-0.526-1.266-0.96-2.568-1.3-3.896c-0.566-1.986-1.83-3.7-3.558-4.829     c-1.249-0.682-2.339-1.621-3.2-2.754v0.004l-0.083-10.433C137.837,137.08,138.584,136.36,139.413,135.743z M17.122,149.435     c0.124-6.776,4.039-12.91,10.133-15.875l26.075-13.408c3.963-2.5,6.193-7.008,5.775-11.675v-8.363     c-0.001-1.683-0.499-3.329-1.434-4.729c-3.314-4.994-5.84-10.468-7.492-16.229c-0.555-2.011-1.827-3.749-3.575-4.887     c-1.249-0.682-2.339-1.621-3.2-2.754v0.004l-0.083-10.433c0.648-0.805,1.396-1.525,2.225-2.142     c1.992-1.619,3.149-4.049,3.15-6.616l-0.025-13.75c-0.366-4.657,1.181-9.262,4.284-12.754c6.584-5.711,15.224-8.469,23.9-7.629     c8.668-0.841,17.302,1.912,23.883,7.617c3.251,3.692,4.829,8.565,4.358,13.462v13.054c0.001,2.567,1.158,4.997,3.15,6.617     c1.692,1.379,2.067,1.842,2.058,1.746l0.017,10.696c0,0.009-0.383,1.05-3.217,2.883c-1.748,1.138-3.02,2.876-3.575,4.887     c-1.651,5.762-4.178,11.235-7.492,16.23c-0.934,1.4-1.433,3.046-1.434,4.729v8.363c-0.392,4.852,2.04,9.498,6.25,11.942     l20.763,10.656c-0.92,2.014-1.402,4.2-1.413,6.415v10.837c0.036,2.206,0.514,4.382,1.406,6.4H17.122V149.435z" fill="#ffffff" data-original="#000000" style="" class=""/>
			<path d="M26.422,400.235c1.51-0.001,3.018-0.125,4.508-0.371c55.972-9.13,252.363-56.295,443.986-279.584l11.697,6.639     c5.476,3.078,12.2,2.903,17.508-0.456c5.309-3.359,8.346-9.361,7.908-15.627l-4.692-63.371     c-0.399-5.686-3.615-10.795-8.57-13.612c-4.955-2.817-10.99-2.969-16.08-0.405l-56.7,28.654     c-5.651,2.802-9.287,8.503-9.444,14.809c-0.157,6.306,3.189,12.181,8.694,15.262l8.583,4.873     C253.671,295.491,73.423,339.651,21.938,348.477c-12.583,2.109-21.821,12.971-21.883,25.729c0.003,2.12,0.269,4.232,0.792,6.288     C3.817,392.172,14.371,400.319,26.422,400.235z M24.855,365.293c53.354-9.143,241.519-55.127,427.17-262.877     c1.32-0.706,2.425-1.756,3.197-3.04c2.323-4.099,0.887-9.305-3.209-11.633l-18.367-10.392l56.675-28.663l4.692,63.375     l-17.75-10.071c-0.277-0.109-0.561-0.202-0.848-0.279c-3.098-1.393-6.734-0.749-9.164,1.625c-0.245,0.173-0.48,0.359-0.704,0.558     C277.23,327.422,83.155,374.052,28.164,383.022c-4.808,0.917-9.51-2.028-10.783-6.754c-0.17-0.674-0.257-1.367-0.259-2.063     C17.192,369.75,20.454,365.99,24.855,365.293z" fill="#ffffff" data-original="#000000" style="" class=""/>
			<path d="M76.855,419.26h-51.2c-14.132,0.015-25.585,11.468-25.6,25.6v59.733c-0.001,2.263,0.898,4.434,2.499,6.035     c1.6,1.6,3.771,2.499,6.035,2.499h85.333c2.263,0.001,4.434-0.898,6.035-2.499c1.6-1.6,2.499-3.771,2.499-6.035V444.86     C102.44,430.728,90.987,419.275,76.855,419.26z M85.388,496.06H17.122v-51.2c0.005-4.711,3.822-8.529,8.533-8.533h51.2     c4.711,0.005,8.529,3.822,8.533,8.533V496.06z" fill="#ffffff" data-original="#000000" style="" class=""/>
			<path d="M213.388,385.126h-51.2c-14.132,0.015-25.585,11.468-25.6,25.6v93.867c-0.001,2.263,0.898,4.434,2.499,6.035     c1.6,1.6,3.771,2.499,6.035,2.499h85.333c2.263,0.001,4.434-0.898,6.035-2.499c1.6-1.6,2.499-3.771,2.499-6.035v-93.867     C238.973,396.594,227.52,385.142,213.388,385.126z M221.922,496.06h-68.267v-85.333c0.005-4.711,3.822-8.529,8.533-8.533h51.2     c4.711,0.005,8.529,3.822,8.533,8.533V496.06z" fill="#ffffff" data-original="#000000" style="" class=""/>
			<path d="M349.922,308.326h-51.2c-14.132,0.015-25.585,11.468-25.6,25.6v170.667c-0.001,2.263,0.898,4.434,2.499,6.035     c1.6,1.6,3.771,2.499,6.035,2.499h85.333c2.263,0.001,4.434-0.898,6.035-2.499c1.6-1.6,2.499-3.771,2.499-6.035V333.926     C375.506,319.794,364.054,308.342,349.922,308.326z M358.455,496.06h-68.267V333.926c0.005-4.711,3.822-8.529,8.533-8.533h51.2     c4.711,0.005,8.529,3.823,8.533,8.533V496.06z" fill="#ffffff" data-original="#000000" style="" class=""/>
			<path d="M486.455,205.926h-51.2c-14.132,0.015-25.585,11.468-25.6,25.6v273.067c-0.001,2.263,0.898,4.434,2.499,6.035     c1.6,1.6,3.771,2.499,6.035,2.499h85.333c2.263,0.001,4.434-0.898,6.035-2.499c1.6-1.6,2.499-3.771,2.499-6.035V231.526     C512.04,217.394,500.587,205.942,486.455,205.926z M494.988,496.06h-68.267V231.526c0.005-4.711,3.822-8.529,8.533-8.533h51.2     c4.711,0.005,8.529,3.822,8.533,8.533V496.06z" fill="#ffffff" data-original="#000000" style="" class=""/>
		</g>
	</g>
</g>
<g xmlns="http://www.w3.org/2000/svg">
</g>
<g xmlns="http://www.w3.org/2000/svg">
</g>
<g xmlns="http://www.w3.org/2000/svg">
</g>
<g xmlns="http://www.w3.org/2000/svg">
</g>
<g xmlns="http://www.w3.org/2000/svg">
</g>
<g xmlns="http://www.w3.org/2000/svg">
</g>
<g xmlns="http://www.w3.org/2000/svg">
</g>
<g xmlns="http://www.w3.org/2000/svg">
</g>
<g xmlns="http://www.w3.org/2000/svg">
</g>
<g xmlns="http://www.w3.org/2000/svg">
</g>
<g xmlns="http://www.w3.org/2000/svg">
</g>
<g xmlns="http://www.w3.org/2000/svg">
</g>
<g xmlns="http://www.w3.org/2000/svg">
</g>
<g xmlns="http://www.w3.org/2000/svg">
</g>
<g xmlns="http://www.w3.org/2000/svg">
</g>
</g></svg>
