<?xml version="1.0"?>
<svg xmlns="http://www.w3.org/2000/svg" xmlns:xlink="http://www.w3.org/1999/xlink" xmlns:svgjs="http://svgjs.com/svgjs" version="1.1" width="512" height="512" x="0" y="0" viewBox="0 0 512 512" style="enable-background:new 0 0 512 512" xml:space="preserve" class=""><g><g xmlns="http://www.w3.org/2000/svg"><g><path d="m286.305 359.618h-60.609c-4.142 0-7.5 3.358-7.5 7.5s3.358 7.5 7.5 7.5h60.609c4.143 0 7.5-3.358 7.5-7.5s-3.358-7.5-7.5-7.5z" fill="#ffffff" data-original="#000000" style="" class=""/><path d="m397.423 464.675h-2.603v-91.675c0-4.142-3.357-7.5-7.5-7.5s-7.5 3.358-7.5 7.5v91.675h-81.975v-47.748l31.576-18.043c2.337-1.335 3.779-3.82 3.779-6.512v-150.462c0-28.149-15.323-54.412-39.4-68.209v-39.694c51.101 16.25 86.021 63.463 86.021 117.953v86.04c0 4.142 3.357 7.5 7.5 7.5s7.5-3.358 7.5-7.5v-86.04c0-31.451-10.81-62.26-30.438-86.752-17.016-21.233-40.071-37.079-65.754-45.389l69.986-61.229c3.816-3.347 6.006-8.176 6.006-13.25v-27.74c0-9.705-7.896-17.6-17.601-17.6h-145.51c-4.142 0-7.5 3.358-7.5 7.5s3.358 7.5 7.5 7.5h145.51c1.434 0 2.601 1.167 2.601 2.6v24.827h-207.241v-24.827c0-1.434 1.167-2.6 2.6-2.6h21.53c4.142 0 7.5-3.358 7.5-7.5s-3.358-7.5-7.5-7.5h-21.53c-9.705 0-17.6 7.896-17.6 17.6v27.74c0 5.073 2.189 9.902 6.012 13.255l69.98 61.224c-25.683 8.309-48.738 24.156-65.754 45.389-19.628 24.492-30.438 55.301-30.438 86.752v212.715h-2.603c-4.142 0-7.5 3.358-7.5 7.5v32.325c0 4.142 3.358 7.5 7.5 7.5h282.846c4.143 0 7.5-3.358 7.5-7.5v-32.325c0-4.142-3.358-7.5-7.5-7.5zm-168.269 0v-44.6h53.691v44.6zm89.047-76.655-29.848 17.056h-64.708l-29.847-17.056v-48.757h124.402v48.757zm-29.295-63.758h-65.813v-25.407h65.813zm-5.422-211.124h-54.969l-63.678-55.711h182.326zm-50.284 15h45.6v65.812h-45.6zm-101.02 123.822c0-54.489 34.919-101.703 86.02-117.952v39.55c-24.079 13.595-39.4 39.5-39.4 67.293v30.65c0 4.142 3.358 7.5 7.5 7.5s7.5-3.358 7.5-7.5v-30.65c0-19.413 9.284-37.685 24.4-49.345v9.945c0 4.142 3.358 7.5 7.5 7.5h60.6c4.143 0 7.5-3.358 7.5-7.5v-9.713c15.118 11.868 24.4 30.445 24.4 50.173v82.352h-14.294v-32.907c0-4.142-3.357-7.5-7.5-7.5h-80.813c-4.142 0-7.5 3.358-7.5 7.5v32.907h-14.293v-17.763c0-4.142-3.358-7.5-7.5-7.5s-7.5 3.358-7.5 7.5l-.001 85.872c0 2.691 1.442 5.177 3.779 6.512l31.577 18.044v47.747h-81.975zm257.743 245.04h-267.846v-17.325h267.846z" fill="#ffffff" data-original="#000000" style="" class=""/><path d="m347.496 430.758v10.102c0 4.142 3.357 7.5 7.5 7.5s7.5-3.358 7.5-7.5v-10.102c0-4.142-3.357-7.5-7.5-7.5s-7.5 3.358-7.5 7.5z" fill="#ffffff" data-original="#000000" style="" class=""/><path d="m322.671 423.258c-4.143 0-7.5 3.358-7.5 7.5v10.102c0 4.142 3.357 7.5 7.5 7.5s7.5-3.358 7.5-7.5v-10.102c0-4.142-3.358-7.5-7.5-7.5z" fill="#ffffff" data-original="#000000" style="" class=""/><path d="m157.004 423.258c-4.142 0-7.5 3.358-7.5 7.5v10.102c0 4.142 3.358 7.5 7.5 7.5s7.5-3.358 7.5-7.5v-10.102c0-4.142-3.358-7.5-7.5-7.5z" fill="#ffffff" data-original="#000000" style="" class=""/><path d="m189.329 423.258c-4.142 0-7.5 3.358-7.5 7.5v10.102c0 4.142 3.358 7.5 7.5 7.5s7.5-3.358 7.5-7.5v-10.102c0-4.142-3.358-7.5-7.5-7.5z" fill="#ffffff" data-original="#000000" style="" class=""/></g></g></g></svg>
