<svg height="512" viewBox="0 0 64 64" width="512" xmlns="http://www.w3.org/2000/svg"><g id="flat"><path d="m3 3h42v58h-42z" fill="#f4f4e6"/><path d="m40 56h2v2h-2z" fill="#2d75bb"/><path d="m36 56h2v2h-2z" fill="#2d75bb"/><path d="m40 35 11-11 3 3-8 8z" fill="#195c85"/><path d="m37 39-3 3 3 3 6-6z" fill="#195c85"/><path d="m34 42-2.707 4.293 1.414 1.414 4.293-2.707z" fill="#50b4f8"/><path d="m51.879 21.879h4.243v4.243h-4.243z" fill="#50b4f8" transform="matrix(.707 -.707 .707 .707 -1.154 45.213)"/><path d="m47 28-9 2-1 5h3z" fill="#f9bb4b"/><path d="m45 39h1l3 4v1a2 2 0 0 1 -2 2 2 2 0 0 1 -2-2z" fill="#f4aa34"/><path d="m45 39v5a2 2 0 0 1 -2 2 2 2 0 0 1 -2-2v-3l2-2z" fill="#f9bb4b"/><path d="m58 36-6-7-6 6h-9a2 2 0 0 0 0 4h9l6 8h4l5 2v-13z" fill="#ffd782"/><path d="m58 41h-2a1 1 0 0 1 -.8-.4l-3-4 1.6-1.2 2.7 3.6h1.5z" fill="#f9bb4b"/><circle cx="24" cy="13" fill="#f98c96" r="6"/><g fill="#394d5c"><path d="m11 22h30v2h-30z"/><path d="m7 26h18v2h-18z"/><path d="m27 26h14v2h-14z"/><path d="m7 30h8v2h-8z"/><path d="m17 30h18v2h-18z"/><path d="m7 34h14v2h-14z"/><path d="m23 34h9v2h-9z"/></g><path d="m10.316 53.869-.632-1.9a29.651 29.651 0 0 0 4.583-2.037 6.066 6.066 0 0 1 -1.974-1.308 3.811 3.811 0 0 1 -.847-4.127 5.3 5.3 0 0 1 4.247-3.481 4.25 4.25 0 0 1 4.164 2.386 4 4 0 0 1 .365 3.546 5.581 5.581 0 0 1 -.884 1.524 12.905 12.905 0 0 0 2.346-.5.994.994 0 0 1 1.148.393c.2.287.762.888 1.242.888.436 0 .871-.557 1.091-.888a1 1 0 0 1 .835-.444h.006a1 1 0 0 1 .832.455c.2.3.78.936 1.266.937.421 0 .847-.543 1.063-.868a1.063 1.063 0 0 1 .125-.152l2-2 1.414 1.414-1.932 1.933a3.273 3.273 0 0 1 -2.668 1.673h-.017a3.219 3.219 0 0 1 -2.068-.872 2.837 2.837 0 0 1 -1.947.813 3.474 3.474 0 0 1 -2.428-1.191 15.228 15.228 0 0 1 -4.582.488 28.616 28.616 0 0 1 -6.748 3.318zm5.773-10.869c-.066 0-.132 0-.2.01a3.333 3.333 0 0 0 -2.56 2.165 1.853 1.853 0 0 0 .377 2.039 4.9 4.9 0 0 0 2.794 1.263 5.563 5.563 0 0 0 1.847-2.219 1.984 1.984 0 0 0 -.2-1.822 2.455 2.455 0 0 0 -2.058-1.436z" fill="#2d75bb"/></g></svg>