<?xml version="1.0"?>
<svg xmlns="http://www.w3.org/2000/svg" xmlns:xlink="http://www.w3.org/1999/xlink" xmlns:svgjs="http://svgjs.com/svgjs" version="1.1" width="512" height="512" x="0" y="0" viewBox="0 0 511.966 511.966" style="enable-background:new 0 0 512 512" xml:space="preserve" class=""><g><g xmlns="http://www.w3.org/2000/svg"><path d="m231.682 321.893c-8.758-3.084-17.814-3.993-25.499-2.558-9.025 1.686-15.592 6.599-18.016 13.48-4.611 13.094 7.278 28.811 27.067 35.78 6.046 2.129 12.234 3.222 18.015 3.222 2.593 0 5.104-.22 7.484-.664 9.025-1.686 15.591-6.599 18.015-13.48 2.423-6.881.385-14.825-5.592-21.794-5.09-5.934-12.716-10.901-21.474-13.986zm12.918 30.797c-.577 1.639-3.114 3.063-6.621 3.718-5.065.947-11.539.231-17.763-1.961-12.71-4.476-19.191-12.985-17.901-16.649.577-1.638 3.114-3.063 6.621-3.718 1.466-.274 3.049-.408 4.711-.408 4.08 0 8.629.812 13.052 2.369 6.224 2.192 11.717 5.692 15.071 9.603 2.323 2.708 3.407 5.408 2.83 7.046z" fill="#ffffff" data-original="#000000" style="" class=""/><path d="m90.374 42.277-21.852 21.852h-28.958c-4.142 0-7.5 3.358-7.5 7.5s3.358 7.5 7.5 7.5h32.064c1.989 0 3.897-.79 5.303-2.197l24.048-24.048c2.929-2.929 2.929-7.678 0-10.606-2.927-2.929-7.676-2.929-10.605-.001z" fill="#ffffff" data-original="#000000" style="" class=""/><path d="m440.371 113.139c4.142 0 7.5-3.358 7.5-7.5v-30.904l20.476-20.476c2.929-2.929 2.929-7.678 0-10.606-2.929-2.929-7.678-2.929-10.606 0l-22.673 22.673c-1.407 1.406-2.197 3.314-2.197 5.303v34.01c0 4.142 3.358 7.5 7.5 7.5z" fill="#ffffff" data-original="#000000" style="" class=""/><path d="m440.371 368.742c-16.61 0-32.352 5.622-45.068 15.955l-26.85-26.85c24.432-26.951 39.337-62.691 39.337-101.847 0-2.802-.078-5.637-.23-8.426-.227-4.136-3.748-7.313-7.899-7.078-4.136.227-7.305 3.764-7.078 7.899.138 2.517.208 5.075.208 7.605 0 2.13-.056 4.247-.153 6.353-7.238 1.189-13.753-.29-18.555-4.28-11.296-9.384-9.986-29.658 2.92-45.193 1.995-2.401 4.168-4.559 6.488-6.475 1.486 3.801 2.819 7.663 3.952 11.587 1.148 3.979 5.306 6.272 9.286 5.126 3.979-1.149 6.274-5.306 5.126-9.286-6.377-22.093-17.929-42.613-33.375-59.704l26.824-26.824c12.716 10.332 28.458 15.955 45.068 15.955 19.133 0 37.121-7.451 50.649-20.979 27.928-27.928 27.928-73.371 0-101.299-27.928-27.928-73.371-27.928-101.299 0-13.529 13.529-20.979 31.517-20.979 50.649 0 16.61 5.622 32.352 15.955 45.068l-26.809 26.809c-3.166-2.877-6.453-5.625-9.86-8.226-26.625-20.326-58.447-31.07-92.028-31.07-39.156 0-74.896 14.905-101.847 39.337l-26.879-26.88c9.986-12.314 15.985-27.986 15.985-45.038-.002-39.497-32.135-71.63-71.631-71.63s-71.629 32.133-71.629 71.629c0 39.497 32.133 71.629 71.629 71.629 17.052 0 32.724-5.999 45.038-15.985l26.879 26.88c-24.432 26.951-39.337 62.691-39.337 101.847s14.905 74.896 39.337 101.847l-26.85 26.85c-12.716-10.332-28.458-15.955-45.068-15.955-19.133 0-37.121 7.451-50.649 20.979-27.928 27.928-27.928 73.371 0 101.299 13.964 13.964 32.307 20.946 50.649 20.946s36.686-6.982 50.649-20.946c13.529-13.529 20.979-31.517 20.979-50.649 0-16.61-5.622-32.352-15.955-45.068l26.85-26.85c26.951 24.432 62.691 39.337 101.847 39.337s74.896-14.905 101.847-39.337l26.85 26.85c-10.333 12.716-15.955 28.458-15.955 45.068 0 19.133 7.451 37.121 20.979 50.649 13.964 13.964 32.307 20.946 50.649 20.946s36.686-6.982 50.649-20.946c27.928-27.928 27.928-73.371 0-101.299-13.525-13.528-31.513-20.979-50.646-20.979zm-40.043-337.156c11.042-11.041 25.54-16.56 40.043-16.56 14.5 0 29.004 5.521 40.043 16.56 22.079 22.08 22.079 58.006 0 80.086-22.08 22.079-58.006 22.079-80.086 0-22.079-22.08-22.079-58.006 0-80.086zm-328.699 96.672c-31.225 0-56.629-25.404-56.629-56.629s25.404-56.629 56.629-56.629c31.226 0 56.629 25.404 56.629 56.629s-25.404 56.629-56.629 56.629zm40.043 352.156c-11.042 11.041-25.54 16.561-40.043 16.56-14.5-.001-29.004-5.521-40.043-16.56-22.079-22.08-22.079-58.006 0-80.086 11.04-11.04 25.542-16.56 40.043-16.56s29.003 5.52 40.043 16.56c22.079 22.08 22.079 58.006 0 80.086zm144.328-87.623c-75.427 0-136.791-61.364-136.791-136.791 0-1.953.051-3.894.133-5.828.96-13.319 7.188-25.04 15.718-29.876 7.769-4.406 17.651-3.627 29.372 2.313 11.912 6.038 16.758 18.053 22.368 31.965l.57 1.412c1.18 2.92 3.989 4.692 6.956 4.692.936 0 1.887-.176 2.808-.548 3.84-1.552 5.695-5.923 4.144-9.764l-.565-1.402c-6.176-15.314-12.563-31.15-29.499-39.735-20.001-10.137-34.26-6.997-42.875-2.355 19.78-51.228 69.542-87.665 127.661-87.665 2.018 0 4.028.05 6.031.136-5.031 6.995-6.416 13.977-6.455 19.434-.139 19.102 15.787 40.728 43.693 59.332 7.625 5.083 24.254 20.167 14.013 50.363-10.438 30.779-37.567 45.978-57.79 44.631-17.755-1.172-30.124-6.071-38.926-15.416-2.84-3.015-7.586-3.157-10.602-.317-3.015 2.84-3.157 7.587-.317 10.602 11.403 12.106 27.384 18.68 48.856 20.099 1.309.086 2.614.129 3.92.129 14.565 0 28.881-5.362 41.625-15.636 12.53-10.102 22.274-24.05 27.438-39.275 9.421-27.78 1.983-53.074-19.898-67.661-22.93-15.287-37.113-33.197-37.014-46.743.048-6.632 3.465-12.34 10.401-17.397 20.973 3.844 40.68 12.526 57.95 25.711 15.855 12.104 28.908 27.661 38.164 45.193-4.254 3.07-8.151 6.718-11.625 10.899-18.191 21.897-18.625 51.647-.968 66.317 6.429 5.341 14.652 8.126 23.503 8.126 1.017 0 2.045-.048 3.077-.122-10.393 65.193-67.003 115.177-135.076 115.177zm224.414 87.623c-11.042 11.041-25.54 16.561-40.043 16.56-14.5-.001-29.004-5.521-40.043-16.56-22.08-22.08-22.08-58.006 0-80.086 11.042-11.041 25.54-16.56 40.043-16.56 14.5 0 29.004 5.521 40.043 16.56 22.079 22.08 22.079 58.006 0 80.086z" fill="#ffffff" data-original="#000000" style="" class=""/><path d="m445.674 435.068c-1.406-1.407-3.314-2.197-5.303-2.197h-34.01c-4.142 0-7.5 3.358-7.5 7.5s3.358 7.5 7.5 7.5h30.903l20.476 20.476c1.464 1.464 3.384 2.197 5.303 2.197s3.839-.732 5.303-2.197c2.929-2.929 2.929-7.678 0-10.606z" fill="#ffffff" data-original="#000000" style="" class=""/><path d="m71.629 398.861c-4.142 0-7.5 3.358-7.5 7.5v30.903l-20.476 20.476c-2.929 2.929-2.929 7.678 0 10.606 1.464 1.464 3.384 2.197 5.303 2.197s3.839-.732 5.303-2.197l22.673-22.673c1.407-1.406 2.197-3.314 2.197-5.303v-34.01c0-4.141-3.358-7.499-7.5-7.499z" fill="#ffffff" data-original="#000000" style="" class=""/></g></g></svg>
